<svg width="263" height="182" viewBox="0 0 263 182" fill="none" xmlns="http://www.w3.org/2000/svg">
<g clip-path="url(#clip0_88_139)">
<rect width="263" height="182" fill="#84D317"/>
<path d="M202.92 186.727C188.617 186.727 176.314 183.697 166.011 177.636C155.769 171.515 147.89 163.03 142.375 152.182C136.92 141.333 134.193 128.848 134.193 114.727C134.193 100.424 136.951 87.8788 142.466 77.0909C148.042 66.2424 155.951 57.7879 166.193 51.7273C176.436 45.6061 188.617 42.5455 202.739 42.5455C214.92 42.5455 225.587 44.7576 234.739 49.1818C243.89 53.6061 251.133 59.8182 256.466 67.8182C261.799 75.8182 264.739 85.2121 265.284 96H228.739C227.708 89.0303 224.981 83.4242 220.557 79.1818C216.193 74.8788 210.466 72.7273 203.375 72.7273C197.375 72.7273 192.133 74.3636 187.648 77.6364C183.223 80.8485 179.769 85.5455 177.284 91.7273C174.799 97.9091 173.557 105.394 173.557 114.182C173.557 123.091 174.769 130.667 177.193 136.909C179.678 143.152 183.163 147.909 187.648 151.182C192.133 154.455 197.375 156.091 203.375 156.091C207.799 156.091 211.769 155.182 215.284 153.364C218.86 151.545 221.799 148.909 224.102 145.455C226.466 141.939 228.011 137.727 228.739 132.818H265.284C264.678 143.485 261.769 152.879 256.557 161C251.405 169.061 244.284 175.364 235.193 179.909C226.102 184.455 215.345 186.727 202.92 186.727Z" fill="white"/>
<path d="M-0.693182 184V-2.18182H38.0341V67.8182H39.2159C40.9129 64.0606 43.3674 60.2424 46.5795 56.3636C49.8523 52.4242 54.0947 49.1515 59.3068 46.5455C64.5795 43.8788 71.125 42.5455 78.9432 42.5455C89.125 42.5455 98.5189 45.2121 107.125 50.5455C115.731 55.8182 122.61 63.7879 127.761 74.4545C132.913 85.0606 135.489 98.3636 135.489 114.364C135.489 129.939 132.973 143.091 127.943 153.818C122.973 164.485 116.186 172.576 107.58 178.091C99.0341 183.545 89.4583 186.273 78.8523 186.273C71.3371 186.273 64.9432 185.03 59.6705 182.545C54.4583 180.061 50.1856 176.939 46.8523 173.182C43.5189 169.364 40.9735 165.515 39.2159 161.636H37.4886V184H-0.693182ZM37.2159 114.182C37.2159 122.485 38.3674 129.727 40.6705 135.909C42.9735 142.091 46.3068 146.909 50.6705 150.364C55.0341 153.758 60.3371 155.455 66.5796 155.455C72.8826 155.455 78.2159 153.727 82.5796 150.273C86.9432 146.758 90.2462 141.909 92.4886 135.727C94.7917 129.485 95.9432 122.303 95.9432 114.182C95.9432 106.121 94.822 99.0303 92.5796 92.9091C90.3371 86.7879 87.0341 82 82.6705 78.5454C78.3068 75.0909 72.9432 73.3636 66.5796 73.3636C60.2765 73.3636 54.9432 75.0303 50.5795 78.3636C46.2765 81.697 42.9735 86.4242 40.6705 92.5454C38.3674 98.6667 37.2159 105.879 37.2159 114.182Z" fill="white"/>
</g>
<defs>
<clipPath id="clip0_88_139">
<rect width="263" height="182" fill="white"/>
</clipPath>
</defs>
</svg>
